<svg width="22" height="20" viewBox="0 0 22 20" fill="none" xmlns="http://www.w3.org/2000/svg">
<path d="M18.1 18.9L14.6 15.45C14.0167 15.6333 13.425 15.7708 12.825 15.8625C12.225 15.9541 11.6167 16 11 16C8.76669 16 6.72502 15.4 4.87502 14.2C3.02502 13 1.57502 11.4166 0.525024 9.44998C0.441691 9.29998 0.379191 9.14581 0.337524 8.98748C0.295858 8.82914 0.275024 8.66664 0.275024 8.49998C0.275024 8.33331 0.295858 8.17081 0.337524 8.01248C0.379191 7.85414 0.441691 7.69998 0.525024 7.54998C0.891691 6.89998 1.28336 6.26664 1.70002 5.64998C2.11669 5.03331 2.60002 4.48331 3.15002 3.99998L1.07502 1.89998C0.891691 1.71664 0.800024 1.48748 0.800024 1.21248C0.800024 0.937476 0.900024 0.699976 1.10002 0.499976C1.28336 0.316642 1.51669 0.224976 1.80002 0.224976C2.08336 0.224976 2.31669 0.316642 2.50002 0.499976L19.5 17.5C19.6834 17.6833 19.7792 17.9125 19.7875 18.1875C19.7959 18.4625 19.7 18.7 19.5 18.9C19.3167 19.0833 19.0834 19.175 18.8 19.175C18.5167 19.175 18.2834 19.0833 18.1 18.9ZM11 13C11.1834 13 11.3584 12.9916 11.525 12.975C11.6917 12.9583 11.8584 12.925 12.025 12.875L6.62502 7.47498C6.57502 7.64164 6.54169 7.80831 6.52502 7.97498C6.50836 8.14164 6.50002 8.31664 6.50002 8.49998C6.50002 9.74998 6.93752 10.8125 7.81252 11.6875C8.68752 12.5625 9.75002 13 11 13ZM11 0.999976C13.2334 0.999976 15.2792 1.60414 17.1375 2.81248C18.9959 4.02081 20.45 5.60831 21.5 7.57498C21.5834 7.70831 21.6459 7.85414 21.6875 8.01248C21.7292 8.17081 21.75 8.33331 21.75 8.49998C21.75 8.66664 21.7334 8.82914 21.7 8.98748C21.6667 9.14581 21.6084 9.29164 21.525 9.42498C21.2084 10.0416 20.8542 10.625 20.4625 11.175C20.0709 11.725 19.6334 12.2416 19.15 12.725C18.9167 12.9583 18.6417 13.0666 18.325 13.05C18.0084 13.0333 17.7334 12.9083 17.5 12.675L15.5 10.675C15.3834 10.5583 15.3084 10.4208 15.275 10.2625C15.2417 10.1041 15.25 9.94164 15.3 9.77498C15.3667 9.55831 15.4167 9.34998 15.45 9.14998C15.4834 8.94998 15.5 8.73331 15.5 8.49998C15.5 7.24998 15.0625 6.18748 14.1875 5.31248C13.3125 4.43748 12.25 3.99998 11 3.99998C10.7667 3.99998 10.55 4.01664 10.35 4.04998C10.15 4.08331 9.94169 4.13331 9.72502 4.19998C9.55836 4.24998 9.39169 4.25831 9.22502 4.22498C9.05836 4.19164 8.91669 4.11664 8.80002 3.99998L7.97502 3.17498C7.65836 2.85831 7.55419 2.49164 7.66252 2.07498C7.77086 1.65831 8.03336 1.39164 8.45002 1.27498C8.86669 1.19164 9.28752 1.12498 9.71252 1.07498C10.1375 1.02498 10.5667 0.999976 11 0.999976ZM12.975 6.64998C13.1584 6.86664 13.3125 7.10414 13.4375 7.36248C13.5625 7.62081 13.6417 7.89164 13.675 8.17498C13.6917 8.30831 13.6417 8.39998 13.525 8.44998C13.4084 8.49998 13.3 8.47498 13.2 8.37498L11.15 6.32498C11.05 6.22498 11.0292 6.11664 11.0875 5.99998C11.1459 5.88331 11.2417 5.82498 11.375 5.82498C11.6917 5.85831 11.9834 5.94581 12.25 6.08748C12.5167 6.22914 12.7584 6.41664 12.975 6.64998Z" fill="#1C1B1F"/>
</svg>
