<svg width="22" height="15" viewBox="0 0 22 15" fill="none" xmlns="http://www.w3.org/2000/svg">
<path d="M11 12C12.25 12 13.3125 11.5625 14.1875 10.6875C15.0625 9.8125 15.5 8.75 15.5 7.5C15.5 6.25 15.0625 5.1875 14.1875 4.3125C13.3125 3.4375 12.25 3 11 3C9.75002 3 8.68752 3.4375 7.81252 4.3125C6.93752 5.1875 6.50002 6.25 6.50002 7.5C6.50002 8.75 6.93752 9.8125 7.81252 10.6875C8.68752 11.5625 9.75002 12 11 12ZM11 10.2C10.25 10.2 9.61252 9.9375 9.08752 9.4125C8.56252 8.8875 8.30002 8.25 8.30002 7.5C8.30002 6.75 8.56252 6.1125 9.08752 5.5875C9.61252 5.0625 10.25 4.8 11 4.8C11.75 4.8 12.3875 5.0625 12.9125 5.5875C13.4375 6.1125 13.7 6.75 13.7 7.5C13.7 8.25 13.4375 8.8875 12.9125 9.4125C12.3875 9.9375 11.75 10.2 11 10.2ZM11 15C8.76669 15 6.72919 14.4 4.88752 13.2C3.04586 12 1.59169 10.4167 0.525024 8.45C0.441691 8.3 0.379191 8.14583 0.337524 7.9875C0.295858 7.82917 0.275024 7.66667 0.275024 7.5C0.275024 7.33333 0.295858 7.17083 0.337524 7.0125C0.379191 6.85417 0.441691 6.7 0.525024 6.55C1.59169 4.58333 3.04586 3 4.88752 1.8C6.72919 0.6 8.76669 0 11 0C13.2334 0 15.2709 0.6 17.1125 1.8C18.9542 3 20.4084 4.58333 21.475 6.55C21.5584 6.7 21.6209 6.85417 21.6625 7.0125C21.7042 7.17083 21.725 7.33333 21.725 7.5C21.725 7.66667 21.7042 7.82917 21.6625 7.9875C21.6209 8.14583 21.5584 8.3 21.475 8.45C20.4084 10.4167 18.9542 12 17.1125 13.2C15.2709 14.4 13.2334 15 11 15Z" fill="#1C1B1F"/>
</svg>
